<?xml version="1.0" standalone="no"?>
<!DOCTYPE svg PUBLIC "-//W3C//DTD SVG 20010904//EN"
 "http://www.w3.org/TR/2001/REC-SVG-20010904/DTD/svg10.dtd">
<svg version="1.0" xmlns="http://www.w3.org/2000/svg"
 width="197.000000pt" height="187.000000pt" viewBox="0 0 197.000000 187.000000"
 preserveAspectRatio="xMidYMid meet">

<g transform="translate(0.000000,187.000000) scale(0.100000,-0.100000)"
fill="#000000" stroke="none">
<path d="M818 1575 c-140 -34 -303 -148 -377 -263 -53 -83 -45 -98 90 -152
l78 -32 10 -51 c6 -29 22 -115 37 -192 20 -105 31 -144 46 -157 18 -16 47 -18
277 -18 196 0 261 3 275 13 12 9 35 73 66 183 41 144 46 172 35 189 -12 19
-25 20 -231 23 -249 3 -267 1 -262 -31 3 -22 5 -22 217 -25 l213 -2 -6 -26
c-4 -15 -10 -39 -13 -55 l-5 -29 -204 0 -204 0 0 -25 0 -25 195 0 c107 0 195
-3 195 -6 0 -3 -7 -30 -16 -60 l-15 -54 -240 0 c-131 0 -239 3 -239 7 0 34
-64 371 -73 381 -6 8 -53 35 -104 60 l-93 47 43 53 c113 140 276 216 467 216
174 0 300 -53 425 -178 120 -121 177 -261 176 -431 -1 -108 -19 -185 -67 -275
-72 -137 -198 -244 -349 -296 -67 -23 -97 -27 -185 -28 -118 0 -163 10 -268
61 -131 62 -273 221 -292 325 -7 37 -5 46 16 71 39 46 39 67 -1 174 -43 117
-56 138 -98 163 -92 57 -207 -9 -207 -119 0 -37 54 -195 82 -240 14 -23 57
-41 99 -41 16 0 29 -5 29 -12 0 -7 9 -21 20 -33 11 -11 42 -54 68 -95 88 -136
239 -246 393 -284 81 -20 224 -20 305 -1 283 66 485 309 501 601 18 312 -186
590 -492 669 -73 19 -238 19 -317 0z m-389 -656 c18 -53 14 -88 -15 -114 -15
-14 -32 -25 -38 -25 -11 0 -69 140 -61 148 5 5 64 20 87 21 10 1 20 -11 27
-30z m-114 -74 c15 -42 24 -79 21 -82 -11 -11 -76 -6 -92 8 -16 13 -44 73 -44
93 0 11 65 55 81 56 4 0 19 -34 34 -75z"/>
<path d="M762 637 c-44 -46 -14 -117 48 -117 62 0 92 73 50 118 -27 29 -71 28
-98 -1z"/>
<path d="M1080 640 c-28 -28 -27 -84 2 -104 50 -35 118 -5 118 52 0 60 -78 94
-120 52z"/>
</g>
</svg>
